<svg width="295" height="47" viewBox="0 0 295 47" fill="none" xmlns="http://www.w3.org/2000/svg">
<path d="M5.8606 30.1245V11.9065H0V35.9851H24.8449V30.1245H5.8606Z" fill="black"/>
<path d="M35.9851 10.0782C35.9851 4.51316 31.4719 0 25.9068 0H11.5909V5.8005V5.8606H24.4442C27.5799 5.8606 30.1195 8.40019 30.1195 11.5359V25.1605H35.98V10.0782H35.9851Z" fill="black"/>
<path d="M7.52862 0.495895H0.175323V7.8492H7.52862V0.495895Z" fill="#ED1C24"/>
<path d="M36.2606 29.2228H28.9073V36.5761H36.2606V29.2228Z" fill="#ED1C24"/>
<path d="M21.7543 14.7166H14.401V22.0699H21.7543V14.7166Z" fill="#ED1C24"/>
<path d="M67.487 14.2908C66.0695 12.167 63.1893 10.9548 60.5545 10.9548C52.56 10.9548 47.6061 16.1642 47.6061 23.3973C47.6061 29.6686 51.3478 35.2838 59.5928 35.8398C62.6783 36.0402 65.9142 35.0834 67.8878 32.098L68.5439 35.4391H74.0088V0.0300522H67.482V14.2908H67.487ZM60.9101 30.1245C56.407 30.1245 54.183 26.5831 54.183 23.3973C54.183 20.0563 56.407 16.6701 60.9101 16.6701C65.258 16.6701 67.7876 19.7056 67.7375 23.5476C67.7375 27.2893 65.0576 30.1245 60.9101 30.1245Z" fill="black"/>
<path d="M90.0378 10.8847C82.4842 10.8847 77.1044 15.9538 77.1044 23.3572C77.1044 30.7606 82.4291 35.8298 89.8825 35.8298C94.2955 35.8298 98.7586 34.5625 101.343 29.7438L96.0186 27.8654C94.9517 29.7939 92.6726 30.2998 90.4386 30.2998C87.6485 30.2998 84.4026 29.288 83.7965 25.7365H102.661C103.372 16.8204 98.3529 10.8847 90.0378 10.8847ZM83.7965 20.8277C84.4577 17.9374 87.1426 16.3646 90.0829 16.3646C92.7728 16.3646 95.7131 17.7872 96.3693 20.8277H83.7965Z" fill="black"/>
<path d="M117.923 20.7225C114.677 20.5221 111.737 20.2165 111.737 18.5936C111.737 16.7703 114.222 16.0089 117.012 16.0089C118.534 16.0089 122.436 16.3145 122.942 19.1546L129.028 18.9543C128.522 12.4124 122.386 10.7895 116.956 10.7895C111.988 10.7895 105.24 12.6128 105.24 18.6487C105.24 24.885 111.832 25.6464 117.257 25.9519C121.415 26.1022 122.987 26.9687 122.887 28.236C122.787 29.6586 120.603 30.6705 117.207 30.6705C114.111 30.6705 111.221 30.0644 111.071 27.6299L104.784 27.5298C105.19 33.8662 110.77 35.95 117.057 35.95C122.837 35.95 128.923 33.6659 129.634 28.747C130.095 21.8896 123.553 21.1282 117.923 20.7225Z" fill="black"/>
<path d="M139.562 11.2904H133.071V35.4291H139.562V11.2904Z" fill="black"/>
<path d="M224.952 10.8346C217.293 10.8346 211.668 15.9588 211.668 23.3121C211.668 30.7155 217.298 35.8398 224.952 35.8398C232.51 35.8398 238.136 30.7155 238.136 23.3121C238.136 15.9588 232.51 10.8346 224.952 10.8346ZM224.952 30.2096C221.1 30.2096 218.36 27.3194 218.36 23.3121C218.36 19.3049 221.1 16.4648 224.952 16.4648C228.754 16.4648 231.494 19.3049 231.494 23.3121C231.494 27.3194 228.754 30.2096 224.952 30.2096Z" fill="black"/>
<path d="M282.456 20.7225C279.21 20.5221 276.27 20.2165 276.27 18.5936C276.27 16.7703 278.754 16.0089 281.544 16.0089C283.067 16.0089 286.969 16.3145 287.475 19.1546L293.561 18.9543C293.055 12.4124 286.919 10.7895 281.494 10.7895C276.525 10.7895 269.778 12.6128 269.778 18.6487C269.778 24.885 276.37 25.6464 281.795 25.9519C285.952 26.1022 287.525 26.9687 287.425 28.236C287.325 29.6586 285.141 30.6705 281.744 30.6705C278.649 30.6705 275.759 30.0644 275.608 27.6299L269.322 27.5298C269.728 33.8662 275.308 35.95 281.594 35.95C287.375 35.95 293.461 33.6659 294.172 28.747C294.628 21.8896 288.086 21.1282 282.456 20.7225Z" fill="black"/>
<path d="M155.376 10.9398C150.262 11.3255 144.346 13.6396 144.346 20.0162C144.346 21.7894 145.208 23.7179 146.73 24.6796C142.222 25.997 141.711 31.3617 145.398 33.8011C146.725 34.5925 150.217 35.925 158.722 35.925C160.966 35.935 164.197 36.1904 164.427 38.1239C164.668 40.358 160.651 41.46 156.738 41.3698V46.99C157.009 46.995 157.274 47 157.53 47C163.26 47 171.069 45.0715 170.969 37.8735C170.969 30.5202 162.399 30.8257 157.024 30.8257H150.582C146.931 30.8257 147.948 26.6181 152.155 28.191C153.573 28.6468 155.351 28.9523 157.224 29.0024C162.499 29.0024 169.802 27.1791 169.752 20.7375C169.752 19.8759 169.557 19.1045 169.216 18.4133C169.216 18.4133 169.171 18.273 169.066 18.0326C168.4 16.5048 165.284 10.9398 155.376 10.9398ZM151.038 20.0663C151.038 14.9971 163.21 14.9971 163.21 20.0663C163.21 24.7297 151.038 24.885 151.038 20.0663Z" fill="black"/>
<path d="M186.071 11.095C179.059 11.095 173.358 16.8004 173.358 23.808V35.4291H179.354V23.808C179.354 20.1013 182.37 17.0859 186.076 17.0859C189.783 17.0859 192.799 20.1013 192.799 23.808V35.4291H198.794V23.808C198.784 16.8004 193.079 11.095 186.071 11.095Z" fill="black"/>
<path d="M260.676 22.8764C260.676 26.5831 257.661 29.5985 253.954 29.5985C250.248 29.5985 247.232 26.5831 247.232 22.8764V11.2553H241.236V22.8764C241.236 29.889 246.942 35.5894 253.949 35.5894C260.957 35.5894 266.662 29.884 266.662 22.8764V11.2553H260.666V22.8764H260.676Z" fill="black"/>
<path d="M139.562 1.44761H133.071V7.93934H139.562V1.44761Z" fill="#ED1C24"/>
<path d="M208.998 11.2904H202.506V35.4291H208.998V11.2904Z" fill="black"/>
<path d="M208.998 1.44761H202.506V7.93934H208.998V1.44761Z" fill="#ED1C24"/>
</svg>
