<svg width="588" height="94" viewBox="0 0 588 94" fill="none" xmlns="http://www.w3.org/2000/svg">
<path d="M12.04 60.23V23.86H0.339996V71.93H49.94V60.23H12.04Z" fill="white"/>
<path d="M72.18 20.21C72.18 9.09999 63.17 0.0899963 52.06 0.0899963H23.48V11.67V11.79H49.14C55.4 11.79 60.47 16.86 60.47 23.12V50.32H72.17V20.21H72.18Z" fill="white"/>
<path d="M15.37 1.07999H0.690002V15.76H15.37V1.07999Z" fill="#ED1C24"/>
<path d="M72.73 58.43H58.05V73.11H72.73V58.43Z" fill="#ED1C24"/>
<path d="M43.77 29.47H29.09V44.15H43.77V29.47Z" fill="#ED1C24"/>
<path d="M135.07 28.62C132.24 24.38 126.49 21.96 121.23 21.96C105.27 21.96 95.38 32.36 95.38 46.8C95.38 59.32 102.85 70.53 119.31 71.64C125.47 72.04 131.93 70.13 135.87 64.17L137.18 70.84H148.09V0.149994H135.06V28.62H135.07ZM121.94 60.23C112.95 60.23 108.51 53.16 108.51 46.8C108.51 40.13 112.95 33.37 121.94 33.37C130.62 33.37 135.67 39.43 135.57 47.1C135.57 54.57 130.22 60.23 121.94 60.23Z" fill="white"/>
<path d="M180.09 21.82C165.01 21.82 154.27 31.94 154.27 46.72C154.27 61.5 164.9 71.62 179.78 71.62C188.59 71.62 197.5 69.09 202.66 59.47L192.03 55.72C189.9 59.57 185.35 60.58 180.89 60.58C175.32 60.58 168.84 58.56 167.63 51.47H205.29C206.71 33.67 196.69 21.82 180.09 21.82ZM167.63 41.67C168.95 35.9 174.31 32.76 180.18 32.76C185.55 32.76 191.42 35.6 192.73 41.67H167.63Z" fill="white"/>
<path d="M235.76 41.46C229.28 41.06 223.41 40.45 223.41 37.21C223.41 33.57 228.37 32.05 233.94 32.05C236.98 32.05 244.77 32.66 245.78 38.33L257.93 37.93C256.92 24.87 244.67 21.63 233.83 21.63C223.91 21.63 210.44 25.27 210.44 37.32C210.44 49.77 223.6 51.29 234.43 51.9C242.73 52.2 245.87 53.93 245.67 56.46C245.47 59.3 241.11 61.32 234.33 61.32C228.15 61.32 222.38 60.11 222.08 55.25L209.53 55.05C210.34 67.7 221.48 71.86 234.03 71.86C245.57 71.86 257.72 67.3 259.14 57.48C260.06 43.79 247 42.27 235.76 41.46Z" fill="white"/>
<path d="M278.96 22.63H266V70.82H278.96V22.63Z" fill="white"/>
<path d="M449.43 21.72C434.14 21.72 422.91 31.95 422.91 46.63C422.91 61.41 434.15 71.64 449.43 71.64C464.52 71.64 475.75 61.41 475.75 46.63C475.75 31.95 464.52 21.72 449.43 21.72ZM449.43 60.4C441.74 60.4 436.27 54.63 436.27 46.63C436.27 38.63 441.74 32.96 449.43 32.96C457.02 32.96 462.49 38.63 462.49 46.63C462.49 54.63 457.02 60.4 449.43 60.4Z" fill="white"/>
<path d="M564.23 41.46C557.75 41.06 551.88 40.45 551.88 37.21C551.88 33.57 556.84 32.05 562.41 32.05C565.45 32.05 573.24 32.66 574.25 38.33L586.4 37.93C585.39 24.87 573.14 21.63 562.31 21.63C552.39 21.63 538.92 25.27 538.92 37.32C538.92 49.77 552.08 51.29 562.91 51.9C571.21 52.2 574.35 53.93 574.15 56.46C573.95 59.3 569.59 61.32 562.81 61.32C556.63 61.32 550.86 60.11 550.56 55.25L538.01 55.05C538.82 67.7 549.96 71.86 562.51 71.86C574.05 71.86 586.2 67.3 587.62 57.48C588.53 43.79 575.47 42.27 564.23 41.46Z" fill="white"/>
<path d="M310.53 21.93C300.32 22.7 288.51 27.32 288.51 40.05C288.51 43.59 290.23 47.44 293.27 49.36C284.27 51.99 283.25 62.7 290.61 67.57C293.26 69.15 300.23 71.81 317.21 71.81C321.69 71.83 328.14 72.34 328.6 76.2C329.08 80.66 321.06 82.86 313.25 82.68V93.9C313.79 93.91 314.32 93.92 314.83 93.92C326.27 93.92 341.86 90.07 341.66 75.7C341.66 61.02 324.55 61.63 313.82 61.63H300.96C293.67 61.63 295.7 53.23 304.1 56.37C306.93 57.28 310.48 57.89 314.22 57.99C324.75 57.99 339.33 54.35 339.23 41.49C339.23 39.77 338.84 38.23 338.16 36.85C338.16 36.85 338.07 36.57 337.86 36.09C336.53 33.04 330.31 21.93 310.53 21.93ZM301.87 40.15C301.87 30.03 326.17 30.03 326.17 40.15C326.17 49.46 301.87 49.77 301.87 40.15Z" fill="white"/>
<path d="M371.81 22.24C357.81 22.24 346.43 33.63 346.43 47.62V70.82H358.4V47.62C358.4 40.22 364.42 34.2 371.82 34.2C379.22 34.2 385.24 40.22 385.24 47.62V70.82H397.21V47.62C397.19 33.63 385.8 22.24 371.81 22.24Z" fill="white"/>
<path d="M520.75 45.76C520.75 53.16 514.73 59.18 507.33 59.18C499.93 59.18 493.91 53.16 493.91 45.76V22.56H481.94V45.76C481.94 59.76 493.33 71.14 507.32 71.14C521.31 71.14 532.7 59.75 532.7 45.76V22.56H520.73V45.76H520.75Z" fill="white"/>
<path d="M278.96 2.98001H266V15.94H278.96V2.98001Z" fill="#ED1C24"/>
<path d="M417.58 22.63H404.62V70.82H417.58V22.63Z" fill="white"/>
<path d="M417.58 2.98001H404.62V15.94H417.58V2.98001Z" fill="#ED1C24"/>
</svg>
